{"title":"Fall Out Boy Ft. Elton John - Save Rock And Roll [Music Video] 7","uid":11175859,"size":88940887,"categoryP":"video","categoryS":"music_videos","magnet":"?xt=urn:btih:81bf46ce24d050f48d8b45426d7c9affe1e3a285&amp;dn=Fall+Out+Boy+Ft.+Elton+John+-+Save+Rock+And+Roll+%5BMusic+Video%5D+7&amp;tr=udp%3A%2F%2Ftracker.openbittorrent.com%3A80&amp;tr=udp%3A%2F%2Fopen.demonii.com%3A1337&amp;tr=udp%3A%2F%2Ftracker.coppersurfer.tk%3A6969&amp;tr=udp%3A%2F%2Fexodus.desync.com%3A6969","seeders":1,"leechers":0,"uploader":"Sbyky","files":1,"time":1412784226,"description":"General\nComplete name                            : Fall Out Boy Ft. Elton John - Save Rock And Roll [Music Video] 720p [Sbyky].MP4\nFormat                                   : MPEG-4\nFormat profile                           : Base Media\nCodec ID                                 : isom\nFile size                                : 84.8 MiB\nDuration                                 : 6mn 20s\nOverall bit rate mode                    : Variable\nOverall bit rate                         : 1 871 Kbps\nEncoded date                             : UTC 2014-05-20 20:35:31\nTagged date                              : UTC 2014-05-20 20:35:31\n\nVideo\nID                                       : 1\nFormat                                   : AVC\nFormat/Info                              : Advanced Video Codec\nFormat profile                           : &lt;a class=&quot;__cf_email__&quot; href=&quot;/cdn-cgi/l/email-protection&quot; data-cfemail=&quot;c885a9a1a68884fbe6f9&quot;&gt;[email&amp;#160;protected]&lt;/a&gt;&lt;script cf-hash='f9e31' type=&quot;text/javascript&quot;&gt;\n/* &lt;![CDATA[ */!function(){try{var t=&quot;currentScript&quot;in document?document.currentScript:function(){for(var t=document.getElementsByTagName(&quot;script&quot;),e=t.length;e--;)if(t[e].getAttribute(&quot;cf-hash&quot;))return t[e]}();if(t&amp;&amp;t.previousSibling){var e,r,n,i,c=t.previousSibling,a=c.getAttribute(&quot;data-cfemail&quot;);if(a){for(e=&quot;&quot;,r=parseInt(a.substr(0,2),16),n=2;a.length-n;n+=2)i=parseInt(a.substr(n,2),16)^r,e+=String.fromCharCode(i);e=document.createTextNode(e),c.parentNode.replaceChild(e,c)}}}catch(u){}}();/* ]]&gt; */&lt;/script&gt;\nFormat settings, CABAC                   : Yes\nFormat settings, ReFrames                : 3 frames\nCodec ID                                 : avc1\nCodec ID/Info                            : Advanced Video Coding\nDuration                                 : 6mn 20s\nBit rate                                 : 1 741 Kbps\nWidth                                    : 1 280 pixels\nHeight                                   : 720 pixels\nDisplay aspect ratio                     : 16:9\nFrame rate mode                          : Variable\nFrame rate                               : 23.976 fps\nMinimum frame rate                       : 23.974 fps\nMaximum frame rate                       : 24.318 fps\nColor space                              : YUV\nChroma subsampling                       : 4:2:0\nBit depth                                : 8 bits\nScan type                                : Progressive\nBits/(Pixel*Frame)                       : 0.079\nStream size                              : 78.9 MiB (93%)\nEncoded date                             : UTC 2014-05-20 20:35:31\nTagged date                              : UTC 2014-05-20 20:35:31\n\nAudio\nID                                       : 2\nFormat                                   : AAC\nFormat/Info                              : Advanced Audio Codec\nFormat profile                           : LC\nCodec ID                                 : 40\nDuration                                 : 6mn 20s\nBit rate mode                            : Variable\nBit rate                                 : 126 Kbps\nChannel(s)                               : 2 channels\nChannel positions                        : Front: L R\nSampling rate                            : 44.1 KHz\nCompression mode                         : Lossy\nStream size                              : 5.69 MiB (7%)\nEncoded date                             : UTC 2014-05-20 20:35:25\nTagged date                              : UTC 2014-05-20 20:35:25\n\nShared By Sbyky\n","torrent":{"xt":"urn:btih:81bf46ce24d050f48d8b45426d7c9affe1e3a285","amp;dn":"Fall+Out+Boy+Ft.+Elton+John+-+Save+Rock+And+Roll+%5BMusic+Video%5D+7","amp;tr":["udp%3A%2F%2Ftracker.openbittorrent.com%3A80","udp%3A%2F%2Fopen.demonii.com%3A1337","udp%3A%2F%2Ftracker.coppersurfer.tk%3A6969","udp%3A%2F%2Fexodus.desync.com%3A6969"],"infoHash":"81bf46ce24d050f48d8b45426d7c9affe1e3a285","infoHashBuffer":{"type":"Buffer","data":[129,191,70,206,36,208,80,244,141,139,69,66,109,124,154,255,225,227,162,133]},"announce":[],"urlList":[]}}